Coordinates
version=1
nRows=13
nColumns=22
inDegrees=yes

Units are S.I. units (second, meters, Newtons, ...)
If the header above contains a line with 'inDegrees', this indicates whether rotational values are in degrees (yes) or radians (no).

endheader
time	pelvis_tilt	pelvis_list	pelvis_rotation	pelvis_tx	pelvis_ty	pelvis_tz	hip_flexion_r	hip_adduction_r	hip_rotation_r	knee_angle_r	ankle_angle_r	subtalar_angle_r	hip_flexion_l	hip_adduction_l	hip_rotation_l	knee_angle_l	ankle_angle_l	subtalar_angle_l	lumbar_extension	lumbar_bending	lumbar_rotation
      2.64000000	     -1.18727787	     -2.15065951	      1.61490824	     -0.72653282	      1.05175983	     -0.28685896	     21.79556438	      3.76615342	     -6.99188973	    -11.24238000	      6.45389388	      1.96054152	     -8.50834355	      1.05753004	      2.29656003	    -17.04425905	     18.76963258	     -0.06799903	     -7.57014709	      0.55087555	     -9.91869232
      2.65000000	     -1.20139487	     -2.41556102	      1.86926598	     -0.71617213	      1.05168009	     -0.28656050	     21.71551478	      4.04053347	     -7.07200640	    -12.02555040	      5.70190526	      1.09817650	     -8.65661149	      0.68182956	      2.60618949	    -17.78604477	     18.39357617	      0.53370306	     -7.39963338	      0.88315213	     -9.94438384
      2.66000000	     -1.21508614	     -2.69081190	      2.12201982	     -0.70567802	      1.05186287	     -0.28629373	     21.64958915	      4.29623593	     -7.17486985	    -12.91262063	      5.02042682	      0.30859767	     -8.75003003	      0.30185127	      2.93675562	    -18.61764486	     17.87217706	      1.20526711	     -7.21247843	      1.23634546	     -9.97988856
      2.67000000	     -1.21841043	     -2.95117372	      2.35279138	     -0.69506192	      1.05231955	     -0.28601797	     21.58098476	      4.52309668	     -7.24347143	    -13.86283340	      4.49213315	     -0.37251150	     -8.79938047	     -0.05558040	      3.25352129	    -19.53315337	     17.18294450	      1.99838762	     -7.02223399	      1.57883746	    -10.03192294
      2.68000000	     -1.21228662	     -3.20846357	      2.59822734	     -0.68436833	      1.05303859	     -0.28577726	     21.47368156	      4.73421708	     -7.26337549	    -14.78010437	      4.12717817	     -0.84563819	     -8.77077294	     -0.40393084	      3.60748777	    -20.58387636	     16.33705786	      2.85577755	     -6.83285701	      1.92268639	    -10.10047942
      2.69000000	     -1.19487537	     -3.43815393	      2.83559430	     -0.67360718	      1.05399066	     -0.28550718	     21.31638833	      4.92757811	     -7.19319917	    -15.63614848	      3.92213463	     -1.17442688	     -8.67128966	     -0.71492463	      3.98867944	    -21.75726338	     15.31443436	      3.82802916	     -6.64626744	      2.23141175	    -10.17403594
      2.70000000	     -1.16272458	     -3.63243772	      3.09121046	     -0.66281177	      1.05513869	     -0.28524692	     21.09026151	      5.09708160	     -7.04238063	    -16.39531871	      3.84911797	     -1.40929287	     -8.48774772	     -0.98508015	      4.41062726	    -23.07385777	     14.10558197	      4.88162972	     -6.47149191	      2.49858318	    -10.27428368
      2.71000000	     -1.11676620	     -3.79269539	      3.34410926	     -0.65198443	      1.05642297	     -0.28494553	     20.78769385	      5.26170790	     -6.80607600	    -17.04137761	      3.91591075	     -1.64310914	     -8.21789393	     -1.21594484	      4.84111675	    -24.53342037	     12.71735658	      6.06400852	     -6.30639387	      2.71931711	    -10.36374534
      2.72000000	     -1.05705378	     -3.91802592	      3.62329060	     -0.64115494	      1.05780608	     -0.28465483	     20.39965975	      5.41077203	     -6.54842676	    -17.55488833	      4.06444821	     -1.92940706	     -7.85632011	     -1.40838802	      5.31792532	    -26.13347743	     11.14561557	      7.33088944	     -6.15404649	      2.89492898	    -10.46802351
      2.73000000	     -0.98174229	     -4.00704745	      3.92769502	     -0.63035034	      1.05924392	     -0.28440470	     19.92288162	      5.53791405	     -6.31380094	    -17.93319834	      4.26761461	     -2.30117792	     -7.40376742	     -1.55972624	      5.82380944	    -27.86658674	      9.40122462	      8.66777288	     -6.01809362	      3.02868295	    -10.57379391
      2.74000000	     -0.88798453	     -4.06148190	      4.26090168	     -0.61960952	      1.06069390	     -0.28418732	     19.36125970	      5.63883122	     -6.14861362	    -18.18748250	      4.49596340	     -2.76282976	     -6.85874085	     -1.67581659	      6.34045176	    -29.73148223	      7.52108898	     10.06903247	     -5.90854562	      3.11758846	    -10.68261359
      2.75000000	     -0.77522030	     -4.09623335	      4.60943052	     -0.60895026	      1.06211697	     -0.28401357	     18.72005855	      5.72332439	     -6.08314433	    -18.32580094	      4.73544781	     -3.28221209	     -6.22348410	     -1.77236821	      6.82922867	    -31.71782398	      5.54875089	     11.48886135	     -5.82695667	      3.18410033	    -10.76497703
      2.76000000	     -0.64380017	     -4.11950794	      4.96332376	     -0.59841548	      1.06347903	     -0.28387031	     18.01379276	      5.79580938	     -6.13130321	    -18.36998364	      4.96997574	     -3.82116261	     -5.49593808	     -1.86125402	      7.26251553	    -33.81797669	      3.56057195	     12.89403222	     -5.77971177	      3.23682832	    -10.80776119
